<?xml version="1.0" encoding="UTF-8" standalone="no"?>
<!-- Created with Inkscape (http://www.inkscape.org/) -->

<svg
   xmlns:dc="http://purl.org/dc/elements/1.1/"
   xmlns:cc="http://creativecommons.org/ns#"
   xmlns:rdf="http://www.w3.org/1999/02/22-rdf-syntax-ns#"
   xmlns:svg="http://www.w3.org/2000/svg"
   xmlns="http://www.w3.org/2000/svg"
   xmlns:sodipodi="http://sodipodi.sourceforge.net/DTD/sodipodi-0.dtd"
   xmlns:inkscape="http://www.inkscape.org/namespaces/inkscape"
   width="57.731251mm"
   height="9.5453453mm"
   viewBox="0 0 204.55955 33.82209"
   id="svg4302"
   version="1.1"
   inkscape:version="0.91 r13725"
   sodipodi:docname="COMPASS_NoTex_new.svg"
   inkscape:export-filename="C:\Users\trogers\Documents\GitHub\website-compass\assets\img\COMPASS_NoText_new.png"
   inkscape:export-xdpi="500"
   inkscape:export-ydpi="500">
  <defs
     id="defs4304" />
  <sodipodi:namedview
     id="base"
     pagecolor="#ffffff"
     bordercolor="#666666"
     borderopacity="1.0"
     inkscape:pageopacity="0.0"
     inkscape:pageshadow="2"
     inkscape:zoom="6.7119819"
     inkscape:cx="27.986211"
     inkscape:cy="16.911045"
     inkscape:document-units="px"
     inkscape:current-layer="layer1"
     showgrid="false"
     fit-margin-top="0"
     fit-margin-left="0"
     fit-margin-right="0"
     fit-margin-bottom="0"
     inkscape:window-width="1920"
     inkscape:window-height="1016"
     inkscape:window-x="0"
     inkscape:window-y="27"
     inkscape:window-maximized="1" />
  <metadata
     id="metadata4307">
    <rdf:RDF>
      <cc:Work
         rdf:about="">
        <dc:format>image/svg+xml</dc:format>
        <dc:type
           rdf:resource="http://purl.org/dc/dcmitype/StillImage" />
        <dc:title></dc:title>
      </cc:Work>
    </rdf:RDF>
  </metadata>
  <g
     inkscape:label="Layer 1"
     inkscape:groupmode="layer"
     id="layer1"
     transform="translate(-128.43452,-126.87974)">
    <g
       id="g4281">
      <path
         id="text4253-4-2-5-9-3"
         transform="translate(128.43452,126.87974)"
         d="M 14.123047 0.125 C 10.17878 0.125 6.8752708 1.4069296 4.2128906 3.9707031 C 1.5505104 6.5344767 0.22070312 9.6904464 0.22070312 13.4375 C 0.22070312 17.184554 1.5026327 20.339521 4.0664062 22.804688 C 6.6301798 25.319158 9.9326862 26.552734 13.876953 26.552734 C 15.15884 26.552734 16.390939 26.403717 17.574219 26.058594 C 18.757499 25.762774 19.695997 25.369036 20.435547 24.974609 C 21.125794 24.580183 21.814135 24.087259 22.455078 23.544922 C 23.096022 23.002585 23.49224 22.60737 23.689453 22.410156 C 23.886666 22.212943 24.034206 22.065879 24.132812 21.917969 L 19.300781 17.332031 L 18.806641 17.972656 C 18.461517 18.46569 17.869882 18.909786 16.982422 19.353516 C 16.094962 19.797246 15.061236 19.994141 13.976562 19.994141 C 12.103036 19.994141 10.524074 19.354152 9.2421875 18.072266 C 7.9603007 16.790379 7.3691406 15.211417 7.3691406 13.337891 C 7.3691406 11.464364 7.9603007 9.8873555 9.2421875 8.6054688 C 10.524074 7.323582 12.103036 6.6835938 13.976562 6.6835938 C 15.011933 6.6835938 15.948477 6.9293168 16.835938 7.3730469 C 17.723398 7.8167769 18.265202 8.1612112 18.511719 8.4570312 C 18.758235 8.7528513 18.955606 8.9497462 19.103516 9.0976562 L 23.984375 4.3164062 L 23.638672 3.8730469 C 23.342852 3.5772269 22.948587 3.2323173 22.40625 2.8378906 C 21.81461 2.4434639 21.175097 1.9979423 20.435547 1.6035156 C 19.695997 1.2090889 18.758502 0.8641794 17.673828 0.56835938 C 16.539851 0.27253935 15.35563 0.125 14.123047 0.125 z M 39.257812 0.125 C 35.313546 0.125 32.010036 1.4069296 29.347656 3.9707031 C 26.685276 6.5344767 25.353516 9.6904464 25.353516 13.4375 C 25.353516 17.184554 26.635445 20.339521 29.199219 22.804688 C 31.762992 25.319158 35.065499 26.552734 39.009766 26.552734 C 42.954033 26.552734 46.257542 25.270805 48.919922 22.707031 C 51.582302 20.143258 52.914062 16.93846 52.914062 13.191406 C 52.914062 9.4443526 51.583305 6.3382137 49.019531 3.8730469 C 46.455758 1.40788 43.202079 0.125 39.257812 0.125 z M 72.384766 0.125 C 68.736319 0.125 66.02492 1.6052502 64.25 4.4648438 L 63.953125 0.61914062 L 57.59375 0.61914062 L 57.59375 26.058594 L 64.742188 26.058594 L 64.742188 12.548828 C 64.742188 10.625998 65.185808 9.1481761 66.171875 8.1621094 C 67.157942 7.1760426 68.390041 6.6835938 69.869141 6.6835938 C 71.249634 6.6835938 72.384024 7.2248708 73.271484 8.2109375 C 74.158944 9.2463076 74.603516 10.775438 74.603516 12.796875 L 74.603516 26.058594 L 81.751953 26.058594 L 81.751953 12.548828 C 81.751953 10.625998 82.195574 9.1481761 83.181641 8.1621094 C 84.167707 7.1760426 85.399806 6.6835938 86.878906 6.6835938 C 88.2594 6.6835938 89.39379 7.2248708 90.28125 8.2109375 C 91.16871 9.2463076 91.613281 10.775438 91.613281 12.796875 L 91.613281 26.058594 L 98.761719 26.058594 L 98.761719 10.478516 C 98.761719 7.2737987 97.87453 4.7602456 96.099609 2.8867188 C 94.324689 1.0624953 92.106215 0.125 89.394531 0.125 C 87.471701 0.125 85.7452 0.61839931 84.216797 1.5058594 C 82.688393 2.4426228 81.554478 3.7729053 80.765625 5.4492188 C 79.976772 3.7729053 78.891209 2.4426228 77.412109 1.5058594 C 75.933009 0.61839931 74.258292 0.125 72.384766 0.125 z M 119.38086 0.125 C 115.83102 0.125 113.01996 1.5544689 110.94922 4.4140625 L 110.35938 0.61914062 L 104.39258 0.61914062 L 104.39258 33.947266 L 111.54102 33.947266 L 111.54102 23.199219 C 113.41454 25.467172 115.97935 26.552734 119.13477 26.552734 C 122.586 26.552734 125.5446 25.269327 128.00977 22.65625 C 130.47493 20.092476 131.70703 16.93846 131.70703 13.191406 C 131.70703 9.5429593 130.47446 6.4363452 128.05859 3.921875 C 125.64273 1.4074048 122.73349 0.125 119.38086 0.125 z M 146.29688 0.125 C 144.22613 0.125 142.30274 0.47085995 140.47852 1.0625 C 138.60499 1.7034434 137.42124 2.1958923 136.87891 2.5410156 C 136.33657 2.9354423 135.9423 3.2319989 135.64648 3.4785156 L 138.55469 8.0625 L 139.24609 7.5703125 C 139.73913 7.2744925 140.47783 6.9291077 141.5625 6.5839844 C 142.59787 6.2881644 143.68391 6.0917969 144.86719 6.0917969 C 146.5928 6.0917969 147.97197 6.584721 149.05664 7.5214844 C 150.14131 8.5075511 150.68359 9.8388363 150.68359 11.564453 L 150.68359 12.648438 C 148.90867 11.465157 146.73955 10.824219 144.17578 10.824219 C 141.16828 10.824219 138.75196 11.612697 136.92773 13.091797 C 135.05421 14.6202 134.16797 16.542593 134.16797 18.810547 C 134.16797 21.127804 135.00633 23.001844 136.78125 24.431641 C 138.55617 25.861437 140.92218 26.552734 143.92969 26.552734 C 147.18371 26.552734 149.74662 25.663592 151.71875 23.888672 L 152.26172 26.058594 L 157.83203 26.058594 L 157.83203 11.662109 C 157.83203 8.0629658 156.7973 5.2523808 154.72656 3.1816406 C 152.65582 1.1602038 149.84672 0.125 146.29688 0.125 z M 172.24414 0.125 C 169.18733 0.125 166.82132 0.86464989 165.0957 2.34375 C 163.32078 3.8228501 162.48242 5.5972286 162.48242 7.6679688 C 162.48242 9.4428889 163.07453 11.020848 164.25781 12.302734 C 165.44109 13.584621 167.21642 14.6203 169.48438 15.310547 C 171.65372 16.000794 173.08272 16.641257 173.82227 17.183594 C 174.51251 17.775234 174.9082 18.417175 174.9082 19.107422 C 174.9082 19.748365 174.61117 20.29112 174.01953 20.685547 C 173.42789 21.079974 172.68919 21.277344 171.70312 21.277344 C 170.51984 21.277344 169.23696 21.030618 167.95508 20.488281 C 166.67319 19.945945 165.787 19.501373 165.39258 19.15625 C 164.94885 18.86043 164.60199 18.564876 164.35547 18.318359 L 161.29883 22.853516 L 161.74414 23.199219 C 162.03996 23.495039 162.4821 23.791595 163.12305 24.136719 C 163.71469 24.531145 164.45529 24.875105 165.24414 25.269531 C 166.03299 25.663958 166.96906 25.960515 168.15234 26.207031 C 169.33562 26.453548 170.51937 26.552734 171.75195 26.552734 C 174.90737 26.552734 177.42187 25.813084 179.24609 24.333984 C 181.02101 22.854884 181.95703 20.882185 181.95703 18.515625 C 181.95703 16.740705 181.26674 15.163697 179.93555 13.783203 C 178.55505 12.40271 176.63314 11.366503 174.16797 10.626953 C 172.29444 10.084616 171.06087 9.5418615 170.41992 9.0488281 C 169.77898 8.5557948 169.48437 7.9651621 169.48438 7.3242188 C 169.48438 6.8311854 169.7311 6.3866142 170.27344 5.9921875 C 170.76647 5.5977608 171.50612 5.4003906 172.49219 5.4003906 C 173.47825 5.4003906 174.56181 5.6475916 175.64648 6.140625 C 176.73116 6.6336584 177.42198 6.9776175 177.81641 7.2734375 C 178.21083 7.5692575 178.50591 7.7676304 178.70312 7.9648438 L 181.75977 3.3300781 L 181.36523 2.984375 C 181.06941 2.7871617 180.6268 2.5404359 180.03516 2.1953125 C 179.44352 1.8994925 178.75275 1.5555856 178.0625 1.2597656 C 177.32295 0.9639456 176.43576 0.66791647 175.40039 0.47070312 C 174.31572 0.27348978 173.27951 0.125 172.24414 0.125 z M 195.06641 0.125 C 192.0096 0.125 189.64359 0.86464989 187.91797 2.34375 C 186.14305 3.8228501 185.30469 5.5972286 185.30469 7.6679688 C 185.30469 9.4428889 185.8968 11.020848 187.08008 12.302734 C 188.26336 13.584621 190.03869 14.6203 192.30664 15.310547 C 194.47599 16.000794 195.90498 16.641257 196.64453 17.183594 C 197.33478 17.775234 197.72852 18.417175 197.72852 19.107422 C 197.72852 19.748365 197.43344 20.29112 196.8418 20.685547 C 196.25016 21.079974 195.51146 21.277344 194.52539 21.277344 C 193.34211 21.277344 192.05923 21.030618 190.77734 20.488281 C 189.49546 19.945945 188.60732 19.501373 188.21289 19.15625 C 187.76916 18.86043 187.42425 18.564876 187.17773 18.318359 L 184.12109 22.853516 L 184.56445 23.199219 C 184.86027 23.495039 185.30437 23.791595 185.94531 24.136719 C 186.53695 24.531145 187.27755 24.875105 188.06641 25.269531 C 188.85526 25.663958 189.79133 25.960515 190.97461 26.207031 C 192.15789 26.453548 193.34164 26.552734 194.57422 26.552734 C 197.72963 26.552734 200.24414 25.813084 202.06836 24.333984 C 203.84328 22.854884 204.7793 20.882185 204.7793 18.515625 C 204.7793 16.740705 204.089 15.163697 202.75781 13.783203 C 201.37732 12.40271 199.4554 11.366503 196.99023 10.626953 C 195.11671 10.084616 193.88313 9.5418615 193.24219 9.0488281 C 192.60124 8.5557948 192.30664 7.9651621 192.30664 7.3242188 C 192.30664 6.8311854 192.55337 6.3866142 193.0957 5.9921875 C 193.58874 5.5977608 194.32839 5.4003906 195.31445 5.4003906 C 196.30052 5.4003906 197.38408 5.6475916 198.46875 6.140625 C 199.55342 6.6336584 200.24425 6.9776175 200.63867 7.2734375 C 201.0331 7.5692575 201.32818 7.7676304 201.52539 7.9648438 L 204.58203 3.3300781 L 204.1875 2.984375 C 203.89168 2.7871617 203.44906 2.5404359 202.85742 2.1953125 C 202.26578 1.8994925 201.57501 1.5555856 200.88477 1.2597656 C 200.14522 0.9639456 199.25803 0.66791647 198.22266 0.47070312 C 197.13798 0.27348978 196.10178 0.125 195.06641 0.125 z M 39.109375 6.6835938 C 40.982902 6.6835938 42.55991 7.323582 43.841797 8.6054688 C 45.123684 9.8873555 45.765625 11.464364 45.765625 13.337891 C 45.765625 15.211417 45.123684 16.790379 43.841797 18.072266 C 42.55991 19.354152 40.982902 19.994141 39.109375 19.994141 C 38.089523 19.994141 37.160946 19.797812 36.316406 19.417969 L 33.529297 23 L 35.236328 18.794922 C 34.937165 18.580384 34.647439 18.344705 34.375 18.072266 C 33.093113 16.790379 32.501953 15.211417 32.501953 13.337891 C 32.501953 11.464364 33.093113 9.8873555 34.375 8.6054688 C 35.656887 7.323582 37.235848 6.6835938 39.109375 6.6835938 z M 117.90234 6.6835938 C 119.77587 6.6835938 121.35288 7.323582 122.63477 8.6054688 C 123.91665 9.8873555 124.55859 11.464364 124.55859 13.337891 C 124.55859 15.211417 123.91665 16.790379 122.63477 18.072266 C 121.35288 19.354152 119.77587 19.994141 117.90234 19.994141 C 116.02882 19.994141 114.44986 19.354152 113.16797 18.072266 C 111.88608 16.790379 111.29492 15.211417 111.29492 13.337891 C 111.29492 11.464364 111.88608 9.8873555 113.16797 8.6054688 C 114.44986 7.323582 116.02882 6.6835938 117.90234 6.6835938 z M 146.04883 15.064453 C 147.52793 15.064453 148.71215 15.409838 149.59961 16.050781 C 150.48707 16.741028 150.92969 17.529558 150.92969 18.515625 C 150.92969 19.550995 150.48707 20.388353 149.59961 21.029297 C 148.71215 21.67024 147.52793 21.966797 146.04883 21.966797 C 144.56973 21.966797 143.43581 21.67024 142.59766 21.029297 C 141.7102 20.388353 141.31641 19.550995 141.31641 18.515625 C 141.31641 17.529558 141.7102 16.741028 142.59766 16.050781 C 143.48512 15.409838 144.61903 15.064453 146.04883 15.064453 z "
         style="font-style:normal;font-weight:normal;font-size:38.4893074px;line-height:125%;font-family:sans-serif;letter-spacing:0px;word-spacing:0px;fill:#ffffff;fill-opacity:0.99215686;stroke:none;stroke-width:1px;stroke-linecap:butt;stroke-linejoin:miter;stroke-opacity:1" />
      <path
         inkscape:transform-center-x="0.93935667"
         transform="matrix(0.00732202,0.00422737,-0.01759089,0.03046832,178.61113,119.88474)"
         inkscape:transform-center-y="-2.3023534"
         d="m -114.0628,657.84926 91.376579,-158.26889 91.376602,-158.26889 91.376589,158.26889 91.37658,158.2689 -182.753171,0 z"
         inkscape:randomized="0"
         inkscape:rounded="0"
         inkscape:flatsided="false"
         sodipodi:arg2="3.6651914"
         sodipodi:arg1="2.6179939"
         sodipodi:r2="105.5126"
         sodipodi:r1="211.02519"
         sodipodi:cy="552.33667"
         sodipodi:cx="68.690376"
         sodipodi:sides="3"
         id="path3344-9-1-0-8-8"
         style="fill:#ffffff;fill-opacity:0.99215686;stroke:none;stroke-width:5;stroke-miterlimit:4;stroke-dasharray:none;stroke-dashoffset:0;stroke-opacity:1"
         sodipodi:type="star" />
    </g>
  </g>
</svg>
