<?xml version="1.0" encoding="UTF-8" standalone="no"?>
<!-- Created with Inkscape (http://www.inkscape.org/) -->

<svg
   xmlns:dc="http://purl.org/dc/elements/1.1/"
   xmlns:cc="http://creativecommons.org/ns#"
   xmlns:rdf="http://www.w3.org/1999/02/22-rdf-syntax-ns#"
   xmlns:svg="http://www.w3.org/2000/svg"
   xmlns="http://www.w3.org/2000/svg"
   xmlns:sodipodi="http://sodipodi.sourceforge.net/DTD/sodipodi-0.dtd"
   xmlns:inkscape="http://www.inkscape.org/namespaces/inkscape"
   width="8.1312561mm"
   height="8.1312561mm"
   viewBox="0 0 28.811537 28.811537"
   id="svg4173"
   version="1.1"
   inkscape:version="0.91 r13725"
   sodipodi:docname="COMPASS_icon_grey.svg"
   inkscape:export-filename="/media/trogers/HDD/GitHub/website-compass/assets/img/COMPASS_icon_grey.png"
   inkscape:export-xdpi="500"
   inkscape:export-ydpi="500">
  <defs
     id="defs4175">
    <clipPath
       clipPathUnits="userSpaceOnUse"
       id="clipPath4179">
      <rect
         style="fill:#ffffff;fill-opacity:0.99215686"
         id="rect4181"
         width="27.946428"
         height="27.946428"
         x="153.60286"
         y="126.25338" />
    </clipPath>
  </defs>
  <sodipodi:namedview
     id="base"
     pagecolor="#ffffff"
     bordercolor="#666666"
     borderopacity="1.0"
     inkscape:pageopacity="0.0"
     inkscape:pageshadow="2"
     inkscape:zoom="5.6"
     inkscape:cx="18.86475"
     inkscape:cy="15.364986"
     inkscape:document-units="px"
     inkscape:current-layer="layer1"
     showgrid="false"
     fit-margin-top="0"
     fit-margin-left="0"
     fit-margin-right="0"
     fit-margin-bottom="0"
     inkscape:window-width="763"
     inkscape:window-height="429"
     inkscape:window-x="1055"
     inkscape:window-y="212"
     inkscape:window-maximized="0" />
  <metadata
     id="metadata4178">
    <rdf:RDF>
      <cc:Work
         rdf:about="">
        <dc:format>image/svg+xml</dc:format>
        <dc:type
           rdf:resource="http://purl.org/dc/dcmitype/StillImage" />
        <dc:title></dc:title>
      </cc:Work>
    </rdf:RDF>
  </metadata>
  <g
     inkscape:label="Layer 1"
     inkscape:groupmode="layer"
     id="layer1"
     transform="translate(636.65399,23.692541)">
    <g
       transform="matrix(0.77346208,0,0,0.77346208,-751.97422,-117.91287)"
       id="g4281"
       clip-path="url(#clipPath4179)"
       style="fill:#828282;fill-opacity:1">
      <path
         inkscape:connector-curvature="0"
         id="text4253-4-2-5-9-3-3"
         transform="translate(128.43452,126.87974)"
         d="M 14.123047,0.125 C 10.17878,0.125 6.8752708,1.4069296 4.2128906,3.9707031 1.5505104,6.5344767 0.22070312,9.6904464 0.22070312,13.4375 c 0,3.747054 1.28192958,6.902021 3.84570308,9.367188 2.5637736,2.51447 5.86628,3.748046 9.8105468,3.748046 1.281887,0 2.513986,-0.149017 3.697266,-0.49414 1.18328,-0.29582 2.121778,-0.689558 2.861328,-1.083985 0.690247,-0.394426 1.378588,-0.88735 2.019531,-1.429687 0.640944,-0.542337 1.037162,-0.937552 1.234375,-1.134766 0.197213,-0.197213 0.344753,-0.344277 0.443359,-0.492187 l -4.832031,-4.585938 -0.49414,0.640625 c -0.345124,0.493034 -0.936759,0.93713 -1.824219,1.38086 -0.88746,0.44373 -1.921186,0.640625 -3.00586,0.640625 -1.873526,0 -3.452488,-0.639989 -4.7343745,-1.921875 -1.2818868,-1.281887 -1.8730469,-2.860849 -1.8730469,-4.734375 0,-1.873527 0.5911601,-3.4505355 1.8730469,-4.7324222 1.2818865,-1.2818868 2.8608485,-1.921875 4.7343745,-1.921875 1.035371,0 1.971915,0.245723 2.859376,0.6894531 0.88746,0.44373 1.429264,0.7881643 1.675781,1.0839843 0.246516,0.2958201 0.443887,0.492715 0.591797,0.640625 l 4.880859,-4.78125 -0.345703,-0.4433593 C 23.342852,3.5772269 22.948587,3.2323173 22.40625,2.8378906 21.81461,2.4434639 21.175097,1.9979423 20.435547,1.6035156 19.695997,1.2090889 18.758502,0.8641794 17.673828,0.56835938 16.539851,0.27253935 15.35563,0.125 14.123047,0.125 Z m 25.134765,0 c -3.944266,0 -7.247776,1.2819296 -9.910156,3.8457031 -2.66238,2.5637736 -3.99414,5.7197433 -3.99414,9.4667969 0,3.747054 1.281929,6.902021 3.845703,9.367188 2.563773,2.51447 5.86628,3.748046 9.810547,3.748046 3.944267,0 7.247776,-1.281929 9.910156,-3.845703 2.66238,-2.563773 3.99414,-5.768571 3.99414,-9.515625 0,-3.7470534 -1.330757,-6.8531923 -3.894531,-9.3183591 C 46.455758,1.40788 43.202079,0.125 39.257812,0.125 Z m 33.126954,0 C 68.736319,0.125 66.02492,1.6052502 64.25,4.4648438 l -0.296875,-3.84570318 -6.359375,0 0,25.43945338 7.148438,0 0,-13.509766 c 0,-1.92283 0.44362,-3.4006519 1.429687,-4.3867186 0.986067,-0.9860668 2.218166,-1.4785156 3.697266,-1.4785156 1.380493,0 2.514883,0.541277 3.402343,1.5273437 0.88746,1.0353701 1.332032,2.5645005 1.332032,4.5859375 l 0,13.261719 7.148437,0 0,-13.509766 c 0,-1.92283 0.443621,-3.4006519 1.429688,-4.3867186 0.986066,-0.9860668 2.218165,-1.4785156 3.697265,-1.4785156 1.380494,0 2.514884,0.541277 3.402344,1.5273437 0.88746,1.0353701 1.332031,2.5645005 1.332031,4.5859375 l 0,13.261719 7.148438,0 0,-15.580078 c 0,-3.2047173 -0.887189,-5.7182704 -2.66211,-7.5917972 C 94.324689,1.0624953 92.106215,0.125 89.394531,0.125 87.471701,0.125 85.7452,0.61839931 84.216797,1.5058594 82.688393,2.4426228 81.554478,3.7729053 80.765625,5.4492188 79.976772,3.7729053 78.891209,2.4426228 77.412109,1.5058594 75.933009,0.61839931 74.258292,0.125 72.384766,0.125 Z m 46.996094,0 c -3.54984,0 -6.3609,1.4294689 -8.43164,4.2890625 l -0.58984,-3.79492188 -5.9668,0 0,33.32812538 7.14844,0 0,-10.748047 c 1.87352,2.267953 4.43833,3.353515 7.59375,3.353515 3.45123,0 6.40983,-1.283407 8.875,-3.896484 2.46516,-2.563774 3.69726,-5.71779 3.69726,-9.464844 0,-3.6484467 -1.23257,-6.7550608 -3.64844,-9.269531 C 125.64273,1.4074048 122.73349,0.125 119.38086,0.125 Z m 26.91602,0 c -2.07075,0 -3.99414,0.34585995 -5.81836,0.9375 -1.87353,0.6409434 -3.05728,1.1333923 -3.59961,1.4785156 -0.54234,0.3944267 -0.93661,0.6909833 -1.23243,0.9375 l 2.90821,4.5839844 0.6914,-0.4921875 c 0.49304,-0.29582 1.23174,-0.6412048 2.31641,-0.9863281 1.03537,-0.29582 2.12141,-0.4921875 3.30469,-0.4921875 1.72561,0 3.10478,0.4929241 4.18945,1.4296875 1.08467,0.9860667 1.62695,2.3173519 1.62695,4.0429686 l 0,1.083985 c -1.77492,-1.183281 -3.94404,-1.824219 -6.50781,-1.824219 -3.0075,0 -5.42382,0.788478 -7.24805,2.267578 -1.87352,1.528403 -2.75976,3.450796 -2.75976,5.71875 0,2.317257 0.83836,4.191297 2.61328,5.621094 1.77492,1.429796 4.14093,2.121093 7.14844,2.121093 3.25402,0 5.81693,-0.889142 7.78906,-2.664062 l 0.54297,2.169922 5.57031,0 0,-14.396485 c 0,-3.5991432 -1.03473,-6.4097282 -3.10547,-8.4804684 C 152.65582,1.1602038 149.84672,0.125 146.29688,0.125 Z m 25.94726,0 c -3.05681,0 -5.42282,0.73964989 -7.14844,2.21875 -1.77492,1.4791001 -2.61328,3.2534786 -2.61328,5.3242188 0,1.7749201 0.59211,3.3528792 1.77539,4.6347652 1.18328,1.281887 2.95861,2.317566 5.22657,3.007813 2.16934,0.690247 3.59834,1.33071 4.33789,1.873047 0.69024,0.59164 1.08593,1.233581 1.08593,1.923828 0,0.640943 -0.29703,1.183698 -0.88867,1.578125 -0.59164,0.394427 -1.33034,0.591797 -2.31641,0.591797 -1.18328,0 -2.46616,-0.246726 -3.74804,-0.789063 -1.28189,-0.542336 -2.16808,-0.986908 -2.5625,-1.332031 -0.44373,-0.29582 -0.79059,-0.591374 -1.03711,-0.837891 l -3.05664,4.535157 0.44531,0.345703 c 0.29582,0.29582 0.73796,0.592376 1.37891,0.9375 0.59164,0.394426 1.33224,0.738386 2.12109,1.132812 0.78885,0.394427 1.72492,0.690984 2.9082,0.9375 1.18328,0.246517 2.36703,0.345703 3.59961,0.345703 3.15542,0 5.66992,-0.73965 7.49414,-2.21875 1.77492,-1.4791 2.71094,-3.451799 2.71094,-5.818359 0,-1.77492 -0.69029,-3.351928 -2.02148,-4.732422 -1.3805,-1.380493 -3.30241,-2.4167 -5.76758,-3.15625 -1.87353,-0.542337 -3.1071,-1.0850915 -3.74805,-1.5781249 -0.64094,-0.4930333 -0.93555,-1.083666 -0.93554,-1.7246093 0,-0.4930334 0.24672,-0.9376046 0.78906,-1.3320313 0.49303,-0.3944267 1.23268,-0.5917969 2.21875,-0.5917969 0.98606,0 2.06962,0.247201 3.15429,0.7402344 1.08468,0.4930334 1.7755,0.8369925 2.16993,1.1328125 0.39442,0.29582 0.6895,0.4941929 0.88671,0.6914063 L 181.75977,3.3300781 181.36523,2.984375 C 181.06941,2.7871617 180.6268,2.5404359 180.03516,2.1953125 179.44352,1.8994925 178.75275,1.5555856 178.0625,1.2597656 177.32295,0.9639456 176.43576,0.66791647 175.40039,0.47070312 174.31572,0.27348978 173.27951,0.125 172.24414,0.125 Z m 22.82227,0 c -3.05681,0 -5.42282,0.73964989 -7.14844,2.21875 -1.77492,1.4791001 -2.61328,3.2534786 -2.61328,5.3242188 0,1.7749201 0.59211,3.3528792 1.77539,4.6347652 1.18328,1.281887 2.95861,2.317566 5.22656,3.007813 2.16935,0.690247 3.59834,1.33071 4.33789,1.873047 0.69025,0.59164 1.08399,1.233581 1.08399,1.923828 0,0.640943 -0.29508,1.183698 -0.88672,1.578125 -0.59164,0.394427 -1.33034,0.591797 -2.31641,0.591797 -1.18328,0 -2.46616,-0.246726 -3.74805,-0.789063 -1.28188,-0.542336 -2.17002,-0.986908 -2.56445,-1.332031 -0.44373,-0.29582 -0.78864,-0.591374 -1.03516,-0.837891 l -3.05664,4.535157 0.44336,0.345703 c 0.29582,0.29582 0.73992,0.592376 1.38086,0.9375 0.59164,0.394426 1.33224,0.738386 2.1211,1.132812 0.78885,0.394427 1.72492,0.690984 2.9082,0.9375 1.18328,0.246517 2.36703,0.345703 3.59961,0.345703 3.15541,0 5.66992,-0.73965 7.49414,-2.21875 1.77492,-1.4791 2.71094,-3.451799 2.71094,-5.818359 0,-1.77492 -0.6903,-3.351928 -2.02149,-4.732422 -1.38049,-1.380493 -3.30241,-2.4167 -5.76758,-3.15625 -1.87352,-0.542337 -3.1071,-1.0850915 -3.74804,-1.5781249 -0.64095,-0.4930333 -0.93555,-1.083666 -0.93555,-1.7246093 0,-0.4930334 0.24673,-0.9376046 0.78906,-1.3320313 0.49304,-0.3944267 1.23269,-0.5917969 2.21875,-0.5917969 0.98607,0 2.06963,0.247201 3.1543,0.7402344 1.08467,0.4930334 1.7755,0.8369925 2.16992,1.1328125 0.39443,0.29582 0.68951,0.4941929 0.88672,0.6914063 L 204.58203,3.3300781 204.1875,2.984375 c -0.29582,-0.1972133 -0.73844,-0.4439391 -1.33008,-0.7890625 -0.59164,-0.29582 -1.28241,-0.6397269 -1.97265,-0.9355469 -0.73955,-0.29582 -1.62674,-0.59184913 -2.66211,-0.78906248 C 197.13798,0.27348978 196.10178,0.125 195.06641,0.125 Z M 39.109375,6.6835938 c 1.873527,0 3.450535,0.6399882 4.732422,1.921875 1.281887,1.2818867 1.923828,2.8588952 1.923828,4.7324222 0,1.873526 -0.641941,3.452488 -1.923828,4.734375 -1.281887,1.281886 -2.858895,1.921875 -4.732422,1.921875 -1.019852,0 -1.948429,-0.196329 -2.792969,-0.576172 L 33.529297,23 35.236328,18.794922 C 34.937165,18.580384 34.647439,18.344705 34.375,18.072266 c -1.281887,-1.281887 -1.873047,-2.860849 -1.873047,-4.734375 0,-1.873527 0.59116,-3.4505355 1.873047,-4.7324222 1.281887,-1.2818868 2.860848,-1.921875 4.734375,-1.921875 z m 78.792965,0 c 1.87353,0 3.45054,0.6399882 4.73243,1.921875 1.28188,1.2818867 1.92382,2.8588952 1.92382,4.7324222 0,1.873526 -0.64194,3.452488 -1.92382,4.734375 -1.28189,1.281886 -2.8589,1.921875 -4.73243,1.921875 -1.87352,0 -3.45248,-0.639989 -4.73437,-1.921875 -1.28189,-1.281887 -1.87305,-2.860849 -1.87305,-4.734375 0,-1.873527 0.59116,-3.4505355 1.87305,-4.7324222 1.28189,-1.2818868 2.86085,-1.921875 4.73437,-1.921875 z m 28.14649,8.3808592 c 1.4791,0 2.66332,0.345385 3.55078,0.986328 0.88746,0.690247 1.33008,1.478777 1.33008,2.464844 0,1.03537 -0.44262,1.872728 -1.33008,2.513672 -0.88746,0.640943 -2.07168,0.9375 -3.55078,0.9375 -1.4791,0 -2.61302,-0.296557 -3.45117,-0.9375 -0.88746,-0.640944 -1.28125,-1.478302 -1.28125,-2.513672 0,-0.986067 0.39379,-1.774597 1.28125,-2.464844 0.88746,-0.640943 2.02137,-0.986328 3.45117,-0.986328 z"
         style="font-style:normal;font-weight:normal;font-size:38.4893074px;line-height:125%;font-family:sans-serif;letter-spacing:0px;word-spacing:0px;fill:#828282;fill-opacity:1;stroke:none;stroke-width:1px;stroke-linecap:butt;stroke-linejoin:miter;stroke-opacity:1" />
      <path
         inkscape:transform-center-x="0.93935667"
         transform="matrix(0.00732202,0.00422737,-0.01759089,0.03046832,178.61113,119.88474)"
         inkscape:transform-center-y="-2.3023534"
         d="m -114.0628,657.84926 91.376579,-158.26889 91.376602,-158.26889 91.376589,158.26889 91.37658,158.2689 -182.753171,0 z"
         inkscape:randomized="0"
         inkscape:rounded="0"
         inkscape:flatsided="false"
         sodipodi:arg2="3.6651914"
         sodipodi:arg1="2.6179939"
         sodipodi:r2="105.5126"
         sodipodi:r1="211.02519"
         sodipodi:cy="552.33667"
         sodipodi:cx="68.690376"
         sodipodi:sides="3"
         id="path3344-9-1-0-8-8-6"
         style="fill:#828282;fill-opacity:1;stroke:none;stroke-width:5;stroke-miterlimit:4;stroke-dasharray:none;stroke-dashoffset:0;stroke-opacity:1"
         sodipodi:type="star" />
    </g>
  </g>
</svg>
